<svg width="339" height="108" viewBox="0 0 339 108" fill="none" xmlns="http://www.w3.org/2000/svg">
<path d="M68.0041 0H0.0527344V19.2788H66.7965C77.5721 19.2788 89.1373 23.0691 89.1373 38.2301C89.1373 52.8764 80.5911 56.807 64.7529 56.807H57.275V76.0858H68.3293C95.8256 76.0858 107.623 56.9942 107.623 38.2301C107.623 18.3897 97.8693 0 68.0041 0Z" fill="#F4F4F4"/>
<path d="M0.0527344 0V29.1522L78.5011 107.999H109.342L0.0527344 0Z" fill="#F4F4F4"/>
<path opacity="0.15" d="M0.0527344 0L19.5603 19.2788H21.4646L0.0527344 0Z" fill="url(#paint0_linear_284_1157)"/>
<path d="M58.5692 108H31.1192L0 76.087L0.0464466 56.8082H7.75659L58.5692 108Z" fill="#F4F4F4"/>
<path opacity="0.15" d="M27.5489 56.8086H57.5069L56.4387 55.7313L27.5489 56.8086Z" fill="url(#paint1_linear_284_1157)"/>
<path opacity="0.15" d="M46.3504 75.7125L76.4943 75.4315L77.8413 76.7898L46.3504 75.7125Z" fill="url(#paint2_linear_284_1157)"/>
<path d="M60.6128 56.8082H0.0464466L0 76.087L76.4976 75.4319" fill="#F4F4F4"/>
<path opacity="0.15" d="M0 76.0903L26.6604 75.8561L28.5647 77.7764L0 76.0903Z" fill="url(#paint3_linear_284_1157)"/>
<path d="M140.01 36.3999V49.001H135.534V20.222H155.191C158.11 20.222 160.381 20.944 162.035 22.355C163.689 23.7661 164.5 25.735 164.5 28.2618C164.5 30.3291 163.851 32.1011 162.554 33.5778C161.257 35.0873 159.537 36.0062 157.461 36.3343L165.376 49.0338H160.543L152.466 36.3999H140.01ZM140.01 32.1996H155.191C156.715 32.1996 157.916 31.8714 158.726 31.1823C159.537 30.4932 159.959 29.5416 159.959 28.2618C159.959 27.0148 159.537 26.0303 158.726 25.374C157.916 24.7177 156.748 24.3896 155.191 24.3896H140.01V32.1996Z" fill="#F4F4F4"/>
<path d="M170.347 49.0338L185.018 20.222H187.873L202.675 49.0338H197.851L194.109 41.6999H178.847L175.139 49.0338H170.347ZM180.817 37.902H192.107L186.495 26.8684L180.817 37.902Z" fill="#F4F4F4"/>
<path d="M219.701 49.0011V24.2118H207.644V20.222H236.242V24.2445H224.153V49.0338H219.701V49.0011Z" fill="#F4F4F4"/>
<path d="M245.638 35.6429V49.0338H241.218V20.222H245.638V31.4193H265.429V20.222H269.817V49.0338H265.429V35.6429H245.638Z" fill="#F4F4F4"/>
<path d="M312.839 36.3999V49.001H308.362V20.222H328.019C330.938 20.222 333.209 20.944 334.863 22.355C336.517 23.7661 337.328 25.735 337.328 28.2618C337.328 30.3291 336.68 32.1011 335.382 33.5778C334.085 35.0873 332.365 36.0062 330.29 36.3343L338.204 49.0338H333.371L325.294 36.4328H312.839V36.3999ZM312.839 32.1996H328.019C329.543 32.1996 330.744 31.8714 331.555 31.1823C332.365 30.4932 332.787 29.5416 332.787 28.2618C332.787 27.0148 332.365 26.0303 331.555 25.374C330.744 24.7177 329.576 24.3896 328.019 24.3896H312.839V32.1996Z" fill="#F4F4F4"/>
<path d="M135.534 92.8806V64.0688H140.09V88.7225H161.646V92.8806H135.534Z" fill="#F4F4F4"/>
<path d="M165.371 92.8806L180.606 64.0688H183.571L198.943 92.8806H193.933L190.047 85.5467H174.198L170.347 92.8806H165.371ZM176.209 81.7488H187.934L182.106 70.7151L176.209 81.7488Z" fill="#F4F4F4"/>
<path d="M202.673 92.8806V64.0688H220.355C223.263 64.0688 225.486 64.6595 226.989 65.8736C228.493 67.0878 229.245 68.8598 229.245 71.1897C229.245 72.371 229.016 73.4211 228.526 74.3071C228.068 75.226 227.382 75.9479 226.466 76.5386C228.068 77.4246 229.277 78.5403 230.062 79.8201C230.879 81.1327 231.271 82.5766 231.271 84.1845C231.271 86.8754 230.389 88.9756 228.591 90.5179C226.793 92.0602 224.342 92.8478 221.204 92.8478H202.673V92.8806ZM220.224 68.2363H207.183V75.0291H220.322C221.76 75.0291 222.839 74.7337 223.558 74.1759C224.277 73.5852 224.669 72.7648 224.669 71.6163C224.669 70.5006 224.309 69.6474 223.558 69.0895C222.839 68.4988 221.727 68.2363 220.224 68.2363ZM221.76 79.2623H207.216V88.7459H221.76C223.329 88.7459 224.538 88.3193 225.421 87.4989C226.27 86.6785 226.728 85.4972 226.728 83.9877C226.728 82.511 226.303 81.3296 225.421 80.5092C224.538 79.656 223.329 79.2623 221.76 79.2623Z" fill="#F4F4F4"/>
<path d="M236.252 89.4249L238.442 85.5565C240.403 86.9356 242.56 87.9784 244.914 88.7521C247.234 89.5258 249.489 89.8958 251.614 89.8958C254.163 89.8958 256.255 89.3576 257.824 88.2812C259.393 87.2048 260.177 85.8256 260.177 84.1437C260.177 82.4618 259.458 81.2172 258.02 80.3762C256.582 79.5689 254.327 79.0979 251.222 78.997C245.992 78.9298 242.397 78.2906 240.436 77.1133C238.475 75.936 237.494 73.9849 237.494 71.2602C237.494 68.7037 238.573 66.6854 240.697 65.1381C242.855 63.5907 245.731 62.817 249.326 62.817C251.81 62.817 254.196 63.1871 256.516 63.8935C258.837 64.5999 261.092 65.6763 263.249 67.0891L260.994 70.9239C259.197 69.6792 257.268 68.7037 255.209 68.031C253.15 67.3582 251.156 67.0218 249.293 67.0218C247.103 67.0218 245.371 67.4255 244.031 68.1992C242.691 68.9728 242.037 70.0156 242.037 71.2939C242.037 72.6058 242.691 73.5476 244.031 74.0858C245.371 74.6241 247.692 74.9268 250.993 74.9268C255.569 74.9268 259.033 75.7341 261.354 77.3151C263.674 78.8961 264.851 81.2844 264.851 84.4128C264.851 87.2048 263.674 89.5258 261.288 91.3759C258.902 93.226 255.863 94.1342 252.071 94.1342C249.293 94.1342 246.515 93.7306 243.77 92.8896C241.09 92.0823 238.54 90.905 236.252 89.4249Z" fill="#F4F4F4"/>
<path d="M274.796 49.0011V20.222H302.136V24.4408H279.364V31.6355H294.292V35.7889H279.364V44.8805H303.394V49.0338H274.796V49.0011Z" fill="#F4F4F4"/>
<defs>
<linearGradient id="paint0_linear_284_1157" x1="0.0369466" y1="9.63712" x2="21.4454" y2="9.63712" gradientUnits="userSpaceOnUse">
<stop stop-color="#0C0C0C"/>
<stop offset="1"/>
</linearGradient>
<linearGradient id="paint1_linear_284_1157" x1="27.5367" y1="56.2579" x2="57.5207" y2="56.2579" gradientUnits="userSpaceOnUse">
<stop stop-color="#0C0C0C"/>
<stop offset="1"/>
</linearGradient>
<linearGradient id="paint2_linear_284_1157" x1="46.3372" y1="76.1234" x2="77.8492" y2="76.1234" gradientUnits="userSpaceOnUse">
<stop stop-color="#0C0C0C"/>
<stop offset="1"/>
</linearGradient>
<linearGradient id="paint3_linear_284_1157" x1="0" y1="76.8035" x2="28.55" y2="76.8035" gradientUnits="userSpaceOnUse">
<stop stop-color="#0C0C0C"/>
<stop offset="1"/>
</linearGradient>
</defs>
</svg>
