<svg width="340" height="108" viewBox="0 0 340 108" fill="none" xmlns="http://www.w3.org/2000/svg">
<path d="M68.2436 0H0.0471191V19.277H67.0334C77.8467 19.277 89.4538 23.0648 89.4538 38.2318C89.4538 52.8802 80.8801 56.8094 64.9823 56.8094H57.4774V76.0864H68.5736C96.165 76.0864 108.008 56.998 108.008 38.2318C108.008 18.389 98.2161 0 68.2436 0Z" fill="#181818"/>
<path d="M0.0471191 0V29.1552L78.774 108H109.729L0.0471191 0Z" fill="#181818"/>
<path opacity="0.15" d="M0.0471191 0L19.6228 19.277H21.5324L0.0471191 0Z" fill="#595959"/>
<path d="M58.7819 108H31.2299L0 76.0865L0.0471516 56.8094H7.78782L58.7819 108Z" fill="#181818"/>
<path opacity="0.15" d="M27.6464 56.8094H57.7132L56.6444 55.7328L27.6464 56.8094Z" fill="#595959"/>
<path opacity="0.15" d="M46.5226 75.7092L76.778 75.4263L78.1297 76.7859L46.5226 75.7092Z" fill="#595959"/>
<path d="M60.833 56.8094H0.0471516L0 76.0865L76.7701 75.4342" fill="#181818"/>
<path opacity="0.15" d="M0 76.0865L26.7584 75.8507L28.668 77.7682L0 76.0865Z" fill="#595959"/>
<path d="M140.511 36.4008V48.998H136.016V20.2279H155.741C158.672 20.2279 160.951 20.9509 162.609 22.3576C164.267 23.7721 165.085 25.7367 165.085 28.2672C165.085 30.334 164.432 32.11 163.128 33.5796C161.823 35.0884 160.102 36.0079 158.02 36.3379L165.965 49.0373H161.116L153.014 36.4008H140.511ZM140.511 32.2043H155.749C157.281 32.2043 158.483 31.8743 159.301 31.1906C160.118 30.499 160.534 29.5481 160.534 28.2672C160.534 27.0177 160.11 26.0354 159.301 25.3831C158.483 24.723 157.312 24.4008 155.749 24.4008H140.511V32.2043Z" fill="#181818"/>
<path d="M170.963 49.0373L185.69 20.2279H188.558L203.411 49.0373H198.57L194.813 41.7053H179.497L175.772 49.0373H170.963ZM181.47 37.9096H192.802L187.167 26.8762L181.47 37.9096Z" fill="#181818"/>
<path d="M220.495 49.0059V24.2122H208.393V20.22H237.092V24.2436H224.959V49.0373H220.487V49.0059H220.495Z" fill="#181818"/>
<path d="M246.523 35.6464V49.0373H242.09V20.2279H246.523V31.4263H266.389V20.2279H270.79V49.0373H266.389V35.6464H246.523Z" fill="#181818"/>
<path d="M313.965 36.4008V48.998H309.469V20.2279H329.194C332.126 20.2279 334.405 20.9509 336.063 22.3576C337.721 23.7721 338.538 25.7367 338.538 28.2672C338.538 30.334 337.886 32.11 336.589 33.5796C335.285 35.0884 333.564 36.0079 331.481 36.3379L339.426 49.0373H334.578L326.475 36.4401H313.972L313.965 36.4008ZM313.965 32.2043H329.202C330.735 32.2043 331.937 31.8743 332.746 31.1906C333.564 30.499 333.98 29.5481 333.98 28.2672C333.98 27.0177 333.556 26.0354 332.746 25.3831C331.929 24.723 330.758 24.4008 329.202 24.4008H313.965V32.2043Z" fill="#181818"/>
<path d="M136.024 92.8802V64.0707H140.597V88.723H162.232V92.8802H136.024Z" fill="#181818"/>
<path d="M165.973 92.8802L181.265 64.0707H184.244L199.67 92.8802H194.641L190.743 85.5481H174.837L170.971 92.8802H165.973ZM176.849 81.7525H188.613L182.766 70.7191L176.849 81.7525Z" fill="#181818"/>
<path d="M203.403 92.8802V64.0707H221.147C224.063 64.0707 226.295 64.6601 227.804 65.8782C229.312 67.0963 230.067 68.8645 230.067 71.1906C230.067 72.3694 229.839 73.4224 229.344 74.3104C228.888 75.2299 228.196 75.9529 227.277 76.5423C228.88 77.4303 230.098 78.5462 230.884 79.8271C231.701 81.1395 232.094 82.5855 232.094 84.1886C232.094 86.8762 231.206 88.9823 229.407 90.5226C227.599 92.0629 225.14 92.8487 221.996 92.8487H203.395V92.8802H203.403ZM221.022 68.2358H207.929V75.0256H221.116C222.562 75.0256 223.639 74.7269 224.361 74.169C225.084 73.5796 225.477 72.7544 225.477 71.6071C225.477 70.4912 225.116 69.6346 224.361 69.0766C223.646 68.503 222.53 68.2358 221.022 68.2358ZM222.562 79.2613H207.969V88.7466H222.562C224.134 88.7466 225.352 88.3222 226.232 87.4971C227.088 86.6798 227.544 85.4931 227.544 83.9843C227.544 82.5069 227.12 81.3281 226.232 80.503C225.352 79.6542 224.134 79.2613 222.562 79.2613Z" fill="#181818"/>
<path d="M237.1 89.4224L239.301 85.556C241.265 86.9313 243.434 87.9764 245.792 88.7544C248.118 89.5246 250.381 89.9018 252.519 89.9018C255.081 89.9018 257.179 89.3674 258.751 88.2908C260.322 87.2142 261.108 85.8389 261.108 84.1572C261.108 82.4755 260.385 81.2338 258.939 80.3929C257.493 79.5835 255.23 79.112 252.118 79.0177C246.868 78.947 243.261 78.3104 241.297 77.1316C239.332 75.9529 238.342 74.0039 238.342 71.277C238.342 68.723 239.426 66.7034 241.556 65.1552C243.725 63.6071 246.609 62.8369 250.216 62.8369C252.707 62.8369 255.104 63.2063 257.43 63.9136C259.756 64.6208 262.02 65.6975 264.189 67.112L261.925 70.947C260.118 69.7053 258.185 68.723 256.118 68.055C254.051 67.3792 252.047 67.0491 250.177 67.0491C247.976 67.0491 246.24 67.4499 244.896 68.2279C243.552 68.998 242.892 70.0432 242.892 71.3242C242.892 72.6366 243.544 73.5796 244.896 74.114C246.24 74.6483 248.574 74.9548 251.882 74.9548C256.472 74.9548 259.953 75.7643 262.279 77.3438C264.605 78.9234 265.792 81.3124 265.792 84.4401C265.792 87.2299 264.613 89.556 262.216 91.4028C259.819 93.2495 256.77 94.1611 252.967 94.1611C250.177 94.1611 247.387 93.7603 244.637 92.9195C241.957 92.0786 239.395 90.9077 237.1 89.4224Z" fill="#181818"/>
<path d="M275.78 49.0059V20.2279H303.222V24.4479H280.369V31.6464H295.348V35.8035H280.369V44.8959H304.487V49.0531H275.788V49.0059H275.78Z" fill="#181818"/>
</svg>
